<svg width="4315" height="1130" viewBox="0 0 4315 1130" fill="none" xmlns="http://www.w3.org/2000/svg">
<path d="M1369.29 668V451.334H1388.17L1487.21 620.334H1477.31L1575.43 451.334H1594.31V668H1572.33V485.691H1577.59L1487.21 640.452H1476.38L1385.38 485.691H1391.26V668H1369.29ZM1685.33 548.215H1799.86V567.715H1685.33V548.215ZM1687.81 648.191H1818.12V668H1664.9V451.334H1813.47V471.144H1687.81V648.191ZM1931.7 669.857C1915.6 669.857 1900.12 667.278 1885.27 662.119C1870.62 656.754 1859.27 649.945 1851.22 641.691L1860.2 624.048C1867.83 631.476 1878.04 637.77 1890.84 642.929C1903.84 647.881 1917.46 650.357 1931.7 650.357C1945.31 650.357 1956.35 648.706 1964.81 645.405C1973.48 641.897 1979.77 637.254 1983.7 631.476C1987.82 625.699 1989.89 619.302 1989.89 612.286C1989.89 603.826 1987.41 597.016 1982.46 591.857C1977.71 586.699 1971.42 582.675 1963.58 579.786C1955.73 576.691 1947.07 574.008 1937.58 571.738C1928.08 569.469 1918.59 567.096 1909.1 564.619C1899.61 561.937 1890.84 558.429 1882.79 554.096C1874.95 549.762 1868.55 544.088 1863.6 537.072C1858.85 529.85 1856.48 520.461 1856.48 508.905C1856.48 498.175 1859.27 488.374 1864.84 479.501C1870.62 470.421 1879.39 463.199 1891.15 457.834C1902.91 452.263 1917.97 449.477 1936.34 449.477C1948.51 449.477 1960.58 451.231 1972.55 454.739C1984.52 458.041 1994.84 462.683 2003.5 468.667L1995.77 486.929C1986.48 480.739 1976.58 476.199 1966.05 473.31C1955.73 470.421 1945.73 468.977 1936.03 468.977C1923.03 468.977 1912.3 470.731 1903.84 474.239C1895.38 477.747 1889.08 482.493 1884.96 488.477C1881.04 494.255 1879.08 500.858 1879.08 508.286C1879.08 516.747 1881.45 523.556 1886.2 528.715C1891.15 533.874 1897.54 537.897 1905.39 540.786C1913.43 543.675 1922.2 546.254 1931.7 548.524C1941.19 550.794 1950.58 553.27 1959.86 555.953C1969.35 558.635 1978.02 562.143 1985.86 566.477C1993.91 570.604 2000.31 576.175 2005.05 583.191C2010 590.207 2012.48 599.389 2012.48 610.738C2012.48 621.262 2009.59 631.064 2003.81 640.143C1998.04 649.016 1989.16 656.238 1977.2 661.81C1965.43 667.175 1950.27 669.857 1931.7 669.857ZM2027.72 668L2126.77 451.334H2149.36L2248.41 668H2224.27L2133.27 464.644H2142.55L2051.55 668H2027.72ZM2066.72 610.119L2073.53 591.548H2199.5L2206.31 610.119H2066.72ZM2276.88 713.19L2290.5 655.929L2292.97 669.238C2288.23 669.238 2284.2 667.69 2280.9 664.595C2277.81 661.5 2276.26 657.476 2276.26 652.524C2276.26 647.572 2277.81 643.548 2280.9 640.452C2284.2 637.357 2288.12 635.81 2292.66 635.81C2297.41 635.81 2301.23 637.46 2304.12 640.762C2307.21 644.064 2308.76 647.984 2308.76 652.524C2308.76 654.175 2308.66 655.825 2308.45 657.476C2308.24 659.127 2307.83 660.984 2307.21 663.048C2306.59 665.111 2305.77 667.587 2304.74 670.476L2291.74 713.19H2276.88ZM2441.43 668V451.334H2522.53C2540.89 451.334 2556.68 454.326 2569.88 460.31C2583.09 466.088 2593.2 474.548 2600.22 485.691C2607.44 496.628 2611.05 509.937 2611.05 525.62C2611.05 540.889 2607.44 554.096 2600.22 565.238C2593.2 576.175 2583.09 584.635 2569.88 590.619C2556.68 596.603 2540.89 599.596 2522.53 599.596H2454.12L2464.34 588.762V668H2441.43ZM2464.34 590.619L2454.12 579.477H2521.91C2543.57 579.477 2559.98 574.834 2571.12 565.548C2582.47 556.056 2588.14 542.747 2588.14 525.62C2588.14 508.286 2582.47 494.874 2571.12 485.382C2559.98 475.89 2543.57 471.144 2521.91 471.144H2454.12L2464.34 460.31V590.619ZM2615.03 668L2714.07 451.334H2736.67L2835.72 668H2811.57L2720.57 464.644H2729.86L2638.86 668H2615.03ZM2654.03 610.119L2660.84 591.548H2786.81L2793.62 610.119H2654.03ZM2871.56 668V451.334H2890.44L3039.94 639.524H3030.03V451.334H3052.63V668H3033.75L2884.56 479.81H2894.46V668H2871.56ZM3256.05 668V587.524L3261.31 601.762L3169.38 451.334H3193.83L3274.62 583.5H3261.62L3342.4 451.334H3365.31L3273.38 601.762L3278.64 587.524V668H3256.05ZM3543.43 668L3447.48 451.334H3472.24L3562 655.31H3548.38L3638.77 451.334H3661.98L3566.03 668H3543.43ZM3693.43 668V451.334H3716.33V668H3693.43ZM3786.83 668V451.334H3805.71L3955.21 639.524H3945.3V451.334H3967.9V668H3949.02L3799.83 479.81H3809.73V668H3786.83ZM4133.33 669.857C4117.03 669.857 4101.86 667.175 4087.83 661.81C4074 656.238 4061.93 648.5 4051.62 638.595C4041.5 628.484 4033.56 616.826 4027.78 603.619C4022.21 590.207 4019.43 575.556 4019.43 559.667C4019.43 543.778 4022.21 529.231 4027.78 516.024C4033.56 502.612 4041.5 490.953 4051.62 481.048C4061.93 470.937 4074 463.199 4087.83 457.834C4101.66 452.263 4116.82 449.477 4133.33 449.477C4149.63 449.477 4164.69 452.263 4178.52 457.834C4192.35 463.199 4204.31 470.834 4214.42 480.739C4224.74 490.644 4232.69 502.302 4238.26 515.715C4244.04 529.128 4246.92 543.778 4246.92 559.667C4246.92 575.556 4244.04 590.207 4238.26 603.619C4232.69 617.032 4224.74 628.691 4214.42 638.595C4204.31 648.5 4192.35 656.238 4178.52 661.81C4164.69 667.175 4149.63 669.857 4133.33 669.857ZM4133.33 649.429C4146.33 649.429 4158.3 647.262 4169.23 642.929C4180.38 638.389 4189.97 632.095 4198.02 624.048C4206.27 615.794 4212.67 606.302 4217.21 595.572C4221.75 584.635 4224.02 572.667 4224.02 559.667C4224.02 546.667 4221.75 534.802 4217.21 524.072C4212.67 513.136 4206.27 503.644 4198.02 495.596C4189.97 487.342 4180.38 481.048 4169.23 476.715C4158.3 472.175 4146.33 469.906 4133.33 469.906C4120.33 469.906 4108.26 472.175 4097.12 476.715C4085.97 481.048 4076.27 487.342 4068.02 495.596C4059.97 503.644 4053.58 513.136 4048.83 524.072C4044.29 534.802 4042.02 546.667 4042.02 559.667C4042.02 572.461 4044.29 584.326 4048.83 595.262C4053.58 606.199 4059.97 615.794 4068.02 624.048C4076.27 632.095 4085.97 638.389 4097.12 642.929C4108.26 647.262 4120.33 649.429 4133.33 649.429Z" fill="black"/>
<path fill-rule="evenodd" clip-rule="evenodd" d="M1075.57 130.139C1066.91 184.632 1077.01 188.964 1108.45 181.4C1108.45 181.4 1108.89 181.643 1109.64 182.083C1111.24 181.482 1113.15 181.748 1114.52 183.119L1116.43 185.026L1139.42 208.019C1141.56 210.153 1141.11 213.725 1138.51 215.264L950.13 326.935C948.314 328.011 945.998 327.72 944.505 326.227L823.899 205.621C822.5 204.222 822.147 202.088 823.02 200.313L920.264 2.58321C921.662 -0.259434 925.441 -0.885329 927.681 1.35466L949.498 23.1721L949.516 23.1899L949.542 23.217L956.482 30.1567C945.894 67.9893 954.405 72.1869 1009.8 64.3708C1061.77 59.9753 1075.8 74.3345 1075.57 130.139ZM1050.54 143.075C1041.49 210.231 1077.08 210.543 1109.44 207.177C1109.09 208.222 1108.37 209.128 1107.38 209.702L957.492 296.636C955.679 297.688 953.386 297.388 951.905 295.906L854.086 198.087C852.705 196.707 852.341 194.609 853.175 192.844L927.052 36.5422C927.385 35.8397 927.883 35.2432 928.491 34.7953C927.004 95.5395 958.631 92.9302 991.345 90.2314L991.35 90.231C993.306 90.0695 995.267 89.9078 997.224 89.7593C1002.02 89.3956 1006.68 88.8116 1011.12 88.2543L1011.12 88.2542C1039.18 84.7358 1058.73 82.2834 1050.54 143.075ZM205.139 90.5229C259.632 99.1782 263.963 89.0785 256.399 57.6387C256.399 57.6387 256.643 57.1956 257.082 56.4439C256.482 54.8441 256.749 52.9376 258.119 51.5669L260.026 49.6598L283.019 26.6671C285.153 24.5335 288.725 24.9829 290.264 27.5785L401.935 215.959C403.011 217.776 402.72 220.091 401.227 221.585L280.621 342.19C279.222 343.589 277.088 343.943 275.313 343.07L77.5832 245.825C74.7406 244.427 74.1147 240.649 76.3547 238.409L84.4829 230.281L84.4826 230.281L105.156 209.607C142.989 220.195 147.186 211.685 139.37 156.291C134.975 104.32 149.334 90.2868 205.139 90.5229ZM218.075 115.549C285.231 124.597 285.542 89.0114 282.177 56.6488C283.222 57.0005 284.128 57.7216 284.702 58.711L371.636 208.598C372.688 210.41 372.388 212.703 370.906 214.185L273.087 312.004C271.707 313.384 269.609 313.749 267.844 312.914L111.542 239.037C110.84 238.705 110.243 238.207 109.795 237.598C170.539 239.085 167.93 207.458 165.231 174.745L165.231 174.741C165.069 172.784 164.907 170.823 164.759 168.865C164.395 164.071 163.811 159.413 163.254 154.969C159.735 126.913 157.283 107.358 218.075 115.549ZM621.161 250.115L317.854 553.421L617.033 852.6L920.34 549.294L621.161 250.115ZM285.169 520.736L252.484 553.421L285.169 586.106L584.348 885.285L617.033 917.97L649.718 885.285L953.024 581.979L985.709 549.294L953.024 516.609L653.845 217.43L621.161 184.745L588.476 217.43L285.169 520.736ZM284.327 352.401C283.538 350.961 283.795 349.173 284.956 348.012L407.9 225.068C408.978 223.989 410.609 223.684 412.005 224.298L510.166 267.526C512.546 268.574 513.129 271.686 511.291 273.525L491.539 293.276C490.452 294.363 488.805 294.664 487.403 294.032L417.539 262.494C416.137 261.861 414.49 262.162 413.403 263.249L326.689 349.963C325.494 351.158 325.261 353.012 326.123 354.465L364.458 419.081C365.32 420.534 365.088 422.387 363.893 423.582L341.124 446.351C339.379 448.095 336.449 447.675 335.265 445.511L284.327 352.401ZM261.666 382.689C261.682 382.719 261.696 382.75 261.711 382.78C261.741 382.844 261.77 382.907 261.798 382.974L301.685 478.16C302.701 480.585 305.852 481.205 307.71 479.346L328.726 458.33C329.839 457.217 330.125 455.522 329.44 454.105L308.247 410.297L286.711 370.635C286.663 370.545 286.623 370.466 286.581 370.374C285.835 368.762 277.936 352.501 266.264 360.095C254.683 367.629 260.924 381.181 261.666 382.689ZM450.043 195.538C449.872 195.468 449.715 195.388 449.552 195.301C447.792 194.358 436.413 188.979 424.853 200.538C412.78 212.612 427.152 220.757 428.314 221.386C428.338 221.399 428.361 221.41 428.383 221.421L428.412 221.436C428.432 221.445 428.451 221.454 428.472 221.463L517.846 262.047C519.249 262.684 520.9 262.384 521.989 261.295L543.441 239.843C545.304 237.98 544.677 234.823 542.244 233.813L450.043 195.538ZM943.321 760.835C944.109 762.276 943.853 764.064 942.692 765.225L819.748 888.168C818.669 889.247 817.039 889.553 815.643 888.938L717.482 845.711C715.102 844.663 714.518 841.551 716.357 839.712L736.108 819.96C737.196 818.873 738.843 818.572 740.245 819.205L810.109 850.743C811.51 851.376 813.157 851.075 814.245 849.987L900.959 763.273C902.154 762.078 902.387 760.225 901.525 758.771L863.19 694.156C862.327 692.702 862.56 690.849 863.755 689.654L886.524 666.885C888.268 665.141 891.199 665.561 892.383 667.725L943.321 760.835ZM1022.51 1022.71C968.016 1014.06 963.684 1024.16 971.248 1055.6C971.248 1055.6 971.005 1056.04 970.565 1056.79C971.166 1058.39 970.899 1060.3 969.529 1061.67L967.621 1063.58L944.629 1086.57C942.495 1088.7 938.923 1088.25 937.384 1085.66L825.713 897.277C824.636 895.46 824.928 893.145 826.421 891.652L947.026 771.046C948.425 769.647 950.559 769.294 952.335 770.167L1150.06 867.411C1152.91 868.809 1153.53 872.587 1151.29 874.827L1143.17 882.956L1122.49 903.629C1084.66 893.041 1080.46 901.552 1088.28 956.945C1092.67 1008.92 1078.31 1022.95 1022.51 1022.71ZM1009.57 997.688C942.417 988.639 942.105 1024.22 945.471 1056.59C944.426 1056.24 943.52 1055.51 942.946 1054.53L856.011 904.639C854.96 902.826 855.26 900.533 856.741 899.051L954.56 801.232C955.94 799.852 958.039 799.488 959.804 800.322L1116.11 874.199C1116.81 874.531 1117.4 875.029 1117.85 875.638C1057.11 874.151 1059.72 905.779 1062.42 938.492C1062.58 940.45 1062.74 942.412 1062.89 944.372C1063.25 949.166 1063.84 953.823 1064.39 958.267C1067.91 986.323 1070.36 1005.88 1009.57 997.688ZM965.981 730.548C965.934 730.452 965.891 730.361 965.85 730.262L925.963 635.076C924.947 632.652 921.796 632.032 919.937 633.891L898.922 654.906C897.809 656.019 897.522 657.714 898.208 659.131L919.401 702.939L940.936 742.602C940.956 742.637 940.974 742.672 940.991 742.706C941.017 742.757 941.041 742.807 941.067 742.863C941.813 744.474 949.711 760.735 961.384 753.141C972.964 745.608 966.724 732.055 965.981 730.548ZM777.929 917.849C777.985 917.877 778.04 917.906 778.096 917.936C779.855 918.878 791.235 924.258 802.795 912.698C814.868 900.625 800.496 892.479 799.334 891.851C799.303 891.834 799.275 891.82 799.247 891.806C799.224 891.795 799.2 891.784 799.175 891.773L709.802 851.189C708.399 850.552 706.748 850.852 705.658 851.942L684.207 873.394C682.344 875.256 682.971 878.414 685.404 879.424L777.604 917.698C777.662 917.722 777.719 917.747 777.775 917.773C777.827 917.797 777.878 917.823 777.929 917.849ZM417.334 886.219C415.893 887.007 414.106 886.751 412.945 885.589L290.001 762.646C288.922 761.567 288.617 759.937 289.231 758.541L332.458 660.379C333.507 657.999 336.619 657.416 338.458 659.255L358.209 679.006C359.296 680.094 359.597 681.741 358.964 683.142L327.427 753.006C326.794 754.408 327.095 756.055 328.182 757.142L414.896 843.857C416.091 845.052 417.945 845.285 419.398 844.422L484.014 806.087C485.467 805.225 487.32 805.458 488.515 806.653L511.284 829.422C513.028 831.166 512.608 834.097 510.444 835.28L417.334 886.219ZM155.457 965.406C164.112 910.913 154.012 906.581 122.572 914.146C122.572 914.146 122.129 913.902 121.378 913.463C119.778 914.063 117.871 913.797 116.5 912.426L114.593 910.519L91.6004 887.526C89.4668 885.393 89.9163 881.82 92.5118 880.282L280.893 768.611C282.709 767.534 285.025 767.825 286.518 769.319L407.124 889.924C408.522 891.323 408.876 893.457 408.003 895.232L310.759 1092.96C309.361 1095.8 305.582 1096.43 303.342 1094.19L281.525 1072.37L281.507 1072.36L281.481 1072.33L274.541 1065.39C285.129 1027.56 276.618 1023.36 221.225 1031.17C169.254 1035.57 155.221 1021.21 155.457 965.406ZM180.483 952.47C189.531 885.314 153.945 885.002 121.582 888.368C121.934 887.323 122.655 886.417 123.644 885.844L273.531 798.909C275.344 797.858 277.637 798.157 279.118 799.639L376.937 897.458C378.318 898.838 378.682 900.937 377.848 902.702L303.97 1059C303.638 1059.71 303.14 1060.3 302.532 1060.75C304.019 1000.01 272.391 1002.62 239.678 1005.31L239.658 1005.32C237.706 1005.48 235.751 1005.64 233.798 1005.79C229.004 1006.15 224.347 1006.73 219.903 1007.29C191.847 1010.81 172.291 1013.26 180.483 952.47ZM447.794 908.797C447.831 908.781 447.868 908.764 447.907 908.748L543.093 868.861C545.517 867.845 546.137 864.694 544.278 862.835L523.263 841.82C522.15 840.707 520.455 840.421 519.038 841.106L475.23 862.299L435.568 883.834C435.478 883.883 435.399 883.922 435.306 883.965C433.695 884.711 417.434 892.609 425.028 904.282C432.561 915.862 446.114 909.622 447.621 908.879C447.651 908.865 447.68 908.851 447.709 908.837C447.737 908.824 447.766 908.81 447.794 908.797ZM260.471 720.502C260.4 720.673 260.321 720.83 260.234 720.993C259.291 722.753 253.912 734.133 265.471 745.693C277.545 757.766 285.69 743.393 286.319 742.231C286.348 742.177 286.371 742.13 286.396 742.073L326.98 652.7C327.617 651.297 327.317 649.646 326.228 648.556L304.776 627.104C302.913 625.242 299.756 625.868 298.746 628.301L260.471 720.502ZM813.689 209.327C815.13 208.538 816.917 208.795 818.078 209.956L941.022 332.9C942.101 333.978 942.406 335.609 941.792 337.005L898.565 435.166C897.516 437.546 894.404 438.129 892.565 436.291L872.814 416.539C871.727 415.452 871.426 413.805 872.058 412.403L903.596 342.539C904.229 341.137 903.928 339.49 902.841 338.403L816.127 251.689C814.932 250.494 813.078 250.261 811.625 251.123L747.009 289.458C745.556 290.32 743.703 290.088 742.508 288.893L719.739 266.124C717.995 264.379 718.415 261.449 720.579 260.265L813.689 209.327ZM783.401 186.666C783.305 186.713 783.215 186.756 783.116 186.797L687.93 226.685C685.506 227.701 684.886 230.851 686.745 232.71L707.76 253.725C708.873 254.838 710.568 255.125 711.985 254.439L755.793 233.246L795.455 211.711C795.511 211.681 795.563 211.654 795.616 211.628C795.649 211.612 795.682 211.596 795.717 211.58C797.328 210.835 813.589 202.936 805.995 191.263C798.462 179.683 784.909 185.924 783.401 186.666ZM970.552 375.043C970.622 374.872 970.702 374.715 970.789 374.552C971.732 372.792 977.111 361.413 965.552 349.853C953.478 337.779 945.333 352.152 944.704 353.314C944.675 353.368 944.652 353.416 944.627 353.472L904.043 442.845C903.406 444.248 903.706 445.899 904.795 446.989L926.247 468.441C928.11 470.304 931.267 469.677 932.277 467.244L970.552 375.043Z" fill="url(#paint0_radial_501_1058)"/>
<defs>
<radialGradient id="paint0_radial_501_1058" cx="0" cy="0" r="1" gradientUnits="userSpaceOnUse" gradientTransform="translate(627.362 575.267) rotate(94.1182) scale(11.9997 152.046)">
<stop/>
<stop offset="1"/>
</radialGradient>
</defs>
</svg>
